# xmcd CD database file
#
# Track frame offsets:
#	150
#	21255
#	32788
#	50725
#	65995
#	84054
#	97287
#	107663
#	123441
#	139835
#
# Disc length: 2074 seconds
#
# Revision: 0
# Processed by: cddbd v1.5.2PL0 Copyright (c) Steve Scherf et al.
# Submitted via: CDex 1.70beta2
#
DISCID=8f08180a
DTITLE=WoC - Women of Country - D2
DYEAR=1900
DGENRE=Country
TTITLE0=Tanya Tucker - My Arms Stay Open All Night
TTITLE1=Holly Dunn - Are You Ever Gonna Love Me
TTITLE2=Juice Newton - Break It To Me Gently
TTITLE3=Lacy J. Dalton - Takin' It Easy
TTITLE4=Janie Fricke - Tell Me A Lie
TTITLE5=Lynn Anderson - Rose Garden
TTITLE6=Pam Tillis - All The Good Ones Are Taken
TTITLE7=Tanya Tucker - Here's Some Love
TTITLE8=Janie Fricke - Always Have, Always Will
TTITLE9=Pam Tillis - Mi Vida Loca
EXTD=
EXTT0=
EXTT1=
EXTT2=
EXTT3=
EXTT4=
EXTT5=
EXTT6=
EXTT7=
EXTT8=
EXTT9=
PLAYORDER=
